<svg width="213" height="69" viewBox="0 0 213 69" fill="none" xmlns="http://www.w3.org/2000/svg">
<path d="M171.959 52.8163C171.454 52.8163 171.1 52.6465 170.906 52.3068L170.875 52.7431H170.251V47.9116H170.954V49.6246C171.166 49.3083 171.508 49.1473 171.976 49.1473C172.356 49.1473 172.654 49.2731 172.878 49.5279C173.099 49.7826 173.208 50.1107 173.208 50.5176V51.443C173.208 51.85 173.095 52.178 172.872 52.4328C172.649 52.6875 172.346 52.8134 171.963 52.8134L171.959 52.8163ZM171.754 52.1663C172.034 52.1663 172.228 52.0872 172.338 51.932C172.445 51.7769 172.502 51.5572 172.502 51.2732V50.6904C172.502 50.096 172.253 49.7974 171.757 49.7974C171.22 49.7974 170.951 50.1078 170.951 50.7314V51.2351C170.951 51.8559 171.22 52.1692 171.757 52.1692L171.754 52.1663Z" fill="#05D182"/>
<path d="M175.07 53.9347L174.4 53.9405L174.824 52.7282L173.6 49.2231H174.346L175.163 51.759L176.05 49.2231H176.753L175.067 53.9347H175.07Z" fill="#05D182"/>
<path d="M179.665 51.5246V52.7427H178.696V48.1104H179.665V50.1572L181.299 48.1104H182.448L180.872 50.0429L182.473 52.7398H181.324L180.202 50.8599L179.663 51.5217L179.665 51.5246Z" fill="#05D182"/>
<path d="M185.197 51.1733H184.329V52.7427H183.36V48.1104H185.109C185.454 48.1104 185.749 48.1513 186.001 48.2362C186.252 48.3211 186.444 48.4353 186.583 48.5847C186.721 48.734 186.818 48.8921 186.879 49.0678C186.942 49.2435 186.973 49.4338 186.973 49.6388C186.973 50.3005 186.693 50.7515 186.131 50.9946L186.902 52.7427H185.869L185.197 51.1733ZM185.114 48.9506H184.329V50.3475H185.114C185.696 50.3475 185.99 50.1162 185.99 49.6535C185.99 49.1908 185.699 48.9506 185.114 48.9506Z" fill="#05D182"/>
<path d="M190.905 52.7427L190.606 51.8086H188.992L188.702 52.7427H187.725L189.272 48.1104H190.357L191.922 52.7427H190.905ZM190.346 51.0092L189.79 49.2816L189.241 51.0092H190.346Z" fill="#05D182"/>
<path d="M195.702 50.9097H193.781V52.7427H192.812V48.1104H195.868V48.977H193.781V50.0487H195.702V50.9097Z" fill="#05D182"/>
<path d="M200.26 48.9918H198.945V52.7428H197.976V48.9918H196.667V48.1133H200.26V48.9918Z" fill="#05D182"/>
<path d="M202.928 52.8217C202.586 52.8217 202.291 52.7721 202.041 52.6724C201.79 52.5729 201.597 52.4383 201.465 52.2684C201.332 52.0985 201.233 51.9199 201.171 51.7296C201.108 51.5392 201.077 51.3371 201.077 51.1205V49.7296C201.077 49.5129 201.108 49.3109 201.171 49.1206C201.233 48.9302 201.329 48.7516 201.465 48.5817C201.597 48.4118 201.792 48.2771 202.041 48.1776C202.291 48.0781 202.588 48.0283 202.928 48.0283C203.266 48.0283 203.568 48.0781 203.82 48.1776C204.071 48.2771 204.263 48.4118 204.396 48.5817C204.529 48.7516 204.628 48.9302 204.69 49.1206C204.753 49.3109 204.784 49.5129 204.784 49.7296V51.1205C204.784 51.3371 204.753 51.5392 204.69 51.7296C204.628 51.9199 204.529 52.0985 204.396 52.2684C204.263 52.4383 204.069 52.5729 203.82 52.6724C203.568 52.7721 203.273 52.8217 202.928 52.8217ZM202.928 51.9403C203.25 51.9403 203.479 51.8584 203.613 51.6915C203.747 51.5245 203.814 51.3167 203.814 51.0649V49.7823C203.814 49.5305 203.747 49.3226 203.613 49.1556C203.482 48.9888 203.253 48.9067 202.928 48.9067C202.603 48.9067 202.382 48.9888 202.246 49.1556C202.114 49.3226 202.047 49.5305 202.047 49.7823V51.0649C202.047 51.3167 202.114 51.5245 202.246 51.6915C202.379 51.8555 202.608 51.9403 202.928 51.9403Z" fill="#05D182"/>
<path d="M208.727 52.7427L206.786 49.9228V52.7427H205.868V48.1104H206.682L208.613 50.9301V48.1104H209.532V52.7427H208.727Z" fill="#05D182"/>
<path d="M96.7721 16.3188H103.458V29.6334C103.458 37.2878 97.4726 43.4956 90.0859 43.4956C82.6991 43.4956 76.7134 37.2907 76.7134 29.6334V16.3188H83.3996V29.6334C83.3996 33.4547 86.3996 36.5646 90.0859 36.5646C93.7721 36.5646 96.7721 33.4547 96.7721 29.6334V16.3188Z" fill="#05D182"/>
<path d="M134.68 29.6336V42.9482H127.994V29.6336C127.994 25.8124 124.994 22.7025 121.308 22.7025C117.621 22.7025 114.622 25.8124 114.622 29.6336V42.9482H107.935V29.6336C107.935 21.9793 113.921 15.7715 121.308 15.7715C128.695 15.7715 134.68 21.9764 134.68 29.6336Z" fill="#05D182"/>
<path d="M184.487 8.1958L173.592 42.9537H166.906L177.8 8.1958H184.487Z" fill="#05D182"/>
<path d="M65.482 8.1958H72.1682V29.6362C72.1682 37.2906 66.1825 43.4984 58.7958 43.4984C57.3523 43.4984 55.9653 43.2583 54.6631 42.8219L56.7309 36.2276C57.3806 36.4473 58.0755 36.5703 58.7958 36.5703C62.4821 36.5703 65.482 33.4604 65.482 29.6392V8.1958Z" fill="#05D182"/>
<path d="M197.064 37.027C194.798 37.027 192.776 35.9348 191.464 34.2335L210.382 27.888C209.548 21.0595 203.908 15.7739 197.066 15.7739C189.651 15.7739 183.639 21.9788 183.639 29.6362C183.639 37.2935 189.651 43.4984 197.066 43.4984C202.715 43.4984 207.549 39.8937 209.528 34.7898L203.543 32.781C202.397 35.2877 199.925 37.0299 197.066 37.0299L197.064 37.027ZM197.064 22.2424C199.328 22.2424 201.352 23.3347 202.664 25.0359L189.911 29.3141C190.075 25.3873 193.219 22.2424 197.064 22.2424Z" fill="#05D182"/>
<path d="M160.566 40.0313C163.343 37.4925 165.098 33.7767 165.098 29.6362C165.098 21.9819 159.112 15.7739 151.725 15.7739C144.338 15.7739 138.353 21.9788 138.353 29.6362C138.353 37.2935 144.338 43.4984 151.725 43.4984C155.411 43.4984 158.411 46.6081 158.411 50.4295C158.411 54.2508 155.411 57.3605 151.725 57.3605C148.039 57.3605 145.038 54.2508 145.038 50.4295C145.038 49.6827 145.157 48.9624 145.37 48.2889L139.008 46.1455C138.584 47.4953 138.355 48.9331 138.355 50.4295C138.355 58.0838 144.341 64.2915 151.728 64.2915C159.115 64.2915 165.1 58.0868 165.1 50.4295C165.1 46.2889 163.346 42.573 160.569 40.0343L160.566 40.0313ZM151.728 36.5643C148.042 36.5643 145.041 33.4546 145.041 29.6333C145.041 25.8119 148.042 22.7021 151.728 22.7021C155.414 22.7021 158.413 25.8119 158.413 29.6333C158.413 33.4546 155.414 36.5643 151.728 36.5643Z" fill="#05D182"/>
<path d="M34.5645 12.9951L21.8021 22.6056L16.9265 38.1573L29.6861 28.5469L34.5616 12.9951H34.5645ZM22.0762 30.8104L24.1043 24.339L27.3839 26.8104L22.0733 30.8104H22.0762Z" fill="#05D182"/>
<path d="M43.3382 12.3245L32.4656 4.13428H19.0253L8.14998 12.3245L3.99756 25.5746L8.14998 38.8249L19.0225 47.0152H32.4628L43.3354 38.8249L47.4877 25.5746L43.3354 12.3245H43.3382ZM25.7455 42.8571C16.5395 42.8571 9.07368 35.1207 9.07368 25.5746C9.07368 16.0286 16.5367 8.29236 25.7455 8.29236C34.9543 8.29236 42.4173 16.0286 42.4173 25.5746C42.4173 35.1207 34.9543 42.8571 25.7455 42.8571Z" fill="#05D182"/>
</svg>
